<svg xmlns="http://www.w3.org/2000/svg" viewBox="0 0 160 160" role="img" aria-labelledby="title desc">
<title id="title">E-commerce founder review avatar</title>
<desc id="desc">Stylized portrait avatar for an e-commerce founder testimonial.</desc>
<defs>
<linearGradient id="bg" x1="0%" x2="100%" y1="0%" y2="100%">
<stop offset="0%" stop-color="#0c221d"/>
<stop offset="100%" stop-color="#06100b"/>
</linearGradient>
<linearGradient id="accent" x1="0%" x2="100%" y1="0%" y2="100%">
<stop offset="0%" stop-color="#31ff8c"/>
<stop offset="100%" stop-color="#2dd4bf"/>
</linearGradient>
</defs>
<rect width="160" height="160" rx="40" fill="url(#bg)"/>
<circle cx="80" cy="74" r="56" fill="rgba(49,255,140,.06)"/>
<rect x="30" y="116" width="100" height="22" rx="11" fill="#0f231d"/>
<path d="M52 126c6-18 17-28 28-28h1c11 0 22 10 28 28" fill="#1d2830"/>
<rect x="64" y="97" width="32" height="22" rx="11" fill="#ca9474"/>
<path d="M47 74V58c0-22 12-34 33-34 22 0 33 12 33 34v16c0 21-14 35-33 35S47 95 47 74z" fill="#d7a17d"/>
<path d="M49 61c0-17 10-29 31-29 18 0 30 8 34 23-9-1-18-4-27-10-7 8-19 14-38 16z" fill="#151d22"/>
<path d="M61 87c4 6 10 9 19 9 8 0 14-3 19-9" stroke="#91563f" stroke-linecap="round" stroke-width="4" fill="none"/>
<circle cx="66" cy="74" r="4" fill="#111"/>
<circle cx="94" cy="74" r="4" fill="#111"/>
<rect x="54" y="121" width="52" height="7" rx="3.5" fill="url(#accent)"/>
<circle cx="114" cy="46" r="13" fill="#0d2018" stroke="rgba(49,255,140,.3)"/>
<path d="M108 46h12M114 40v12" stroke="#31ff8c" stroke-linecap="round" stroke-width="2.8"/>
</svg>
