<svg xmlns="http://www.w3.org/2000/svg" width="1543" height="491" viewBox="0 0 1543 491" role="img" aria-label="Search performance snapshot for tonier-cain">
    <rect width="100%" height="100%" fill="#e9eef5"/>
    <rect x="6" y="20" width="1531" height="459" rx="22" fill="#ffffff" stroke="#e3e8ef"/>
    
    <rect x="6" y="20" rx="0" ry="0" width="190" height="104" fill="#5b8def" stroke="none"/><rect x="32" y="38" width="14" height="14" rx="2" fill="none" stroke="#ffffff" stroke-width="1.6"/><path d="M35 47 l4 4 l7 -8" fill="none" stroke="#ffffff" stroke-width="1.8" stroke-linecap="round" stroke-linejoin="round"/><text x="54" y="52" font-family="Arial, Helvetica, sans-serif" font-size="14" fill="#ffffff" font-weight="600">Total clicks</text><text x="32" y="95" font-family="Arial, Helvetica, sans-serif" font-size="34" fill="#ffffff" font-weight="500">696</text><rect x="196" y="20" rx="0" ry="0" width="190" height="104" fill="#6b3dc5" stroke="none"/><rect x="222" y="38" width="14" height="14" rx="2" fill="none" stroke="#ffffff" stroke-width="1.6"/><path d="M225 47 l4 4 l7 -8" fill="none" stroke="#ffffff" stroke-width="1.8" stroke-linecap="round" stroke-linejoin="round"/><text x="244" y="52" font-family="Arial, Helvetica, sans-serif" font-size="14" fill="#ffffff" font-weight="600">Total impressions</text><text x="222" y="95" font-family="Arial, Helvetica, sans-serif" font-size="34" fill="#ffffff" font-weight="500">83.8K</text><rect x="386" y="20" rx="0" ry="0" width="190" height="104" fill="#1c9a8d" stroke="none"/><rect x="412" y="38" width="14" height="14" rx="2" fill="none" stroke="#ffffff" stroke-width="1.6"/><path d="M415 47 l4 4 l7 -8" fill="none" stroke="#ffffff" stroke-width="1.8" stroke-linecap="round" stroke-linejoin="round"/><text x="434" y="52" font-family="Arial, Helvetica, sans-serif" font-size="14" fill="#ffffff" font-weight="600">Average CTR</text><text x="412" y="95" font-family="Arial, Helvetica, sans-serif" font-size="34" fill="#ffffff" font-weight="500">0.8%</text><rect x="576" y="20" rx="0" ry="0" width="190" height="104" fill="#ef7b1d" stroke="none"/><rect x="602" y="38" width="14" height="14" rx="2" fill="none" stroke="#ffffff" stroke-width="1.6"/><path d="M605 47 l4 4 l7 -8" fill="none" stroke="#ffffff" stroke-width="1.8" stroke-linecap="round" stroke-linejoin="round"/><text x="624" y="52" font-family="Arial, Helvetica, sans-serif" font-size="14" fill="#ffffff" font-weight="600">Average position</text><text x="602" y="95" font-family="Arial, Helvetica, sans-serif" font-size="34" fill="#ffffff" font-weight="500">15.2</text>
    <g><rect x="1431" y="28" width="92" height="38" rx="9" fill="#ffffff" stroke="#aab4bf"/><text x="1459" y="52" font-family="Arial, Helvetica, sans-serif" font-size="14" fill="#444">Daily</text><path d="M 1509 45 l6 6 l6 -6" fill="none" stroke="#444" stroke-width="1.6"/></g>
    <text x="32" y="146" font-family="Arial, Helvetica, sans-serif" font-size="12" fill="#5a6470">Clicks</text>
    <text x="1503" y="146" font-family="Arial, Helvetica, sans-serif" font-size="12" fill="#5a6470" text-anchor="end">Impressions</text>
    <line x1="32" y1="160.0" x2="1511" y2="160.0" stroke="#e6ebf1" stroke-width="1"/><line x1="32" y1="231.8" x2="1511" y2="231.8" stroke="#e6ebf1" stroke-width="1"/><line x1="32" y1="303.5" x2="1511" y2="303.5" stroke="#e6ebf1" stroke-width="1"/><line x1="32" y1="375.2" x2="1511" y2="375.2" stroke="#e6ebf1" stroke-width="1"/>
    <polyline points="32.0,395.3 155.2,369.5 278.5,383.9 401.8,360.9 525.0,389.6 648.2,372.4 771.5,392.5 894.8,378.1 1018.0,386.7 1141.2,297.8 1264.5,332.2 1387.8,381.0 1511.0,366.6" fill="none" stroke="#5b8def" stroke-width="3" stroke-linecap="round" stroke-linejoin="round"/><polyline points="32.0,372.4 155.2,358.0 278.5,343.7 401.8,297.8 525.0,320.7 648.2,306.4 771.5,271.9 894.8,326.5 1018.0,337.9 1141.2,346.6 1264.5,329.3 1387.8,335.1 1511.0,340.8" fill="none" stroke="#6b3dc5" stroke-width="3" stroke-linecap="round" stroke-linejoin="round"/><polyline points="32.0,403.9 155.2,378.1 278.5,386.7 401.8,395.3 525.0,401.1 648.2,389.6 771.5,398.2 894.8,386.7 1018.0,392.5 1141.2,323.6 1264.5,340.8 1387.8,389.6 1511.0,383.9" fill="none" stroke="#1c9a8d" stroke-width="3" stroke-linecap="round" stroke-linejoin="round"/><polyline points="32.0,352.3 155.2,343.7 278.5,329.3 401.8,335.1 525.0,349.4 648.2,337.9 771.5,317.9 894.8,323.6 1018.0,332.2 1141.2,340.8 1264.5,326.5 1387.8,335.1 1511.0,346.6" fill="none" stroke="#ef7b1d" stroke-width="3" stroke-linecap="round" stroke-linejoin="round"/>
    <text x="32.0" y="477" text-anchor="middle" font-family="Arial, Helvetica, sans-serif" font-size="11" fill="#7c8792">1/16/26</text><text x="155.2" y="477" text-anchor="middle" font-family="Arial, Helvetica, sans-serif" font-size="11" fill="#7c8792">1/23/26</text><text x="278.5" y="477" text-anchor="middle" font-family="Arial, Helvetica, sans-serif" font-size="11" fill="#7c8792">1/30/26</text><text x="401.8" y="477" text-anchor="middle" font-family="Arial, Helvetica, sans-serif" font-size="11" fill="#7c8792">2/6/26</text><text x="525.0" y="477" text-anchor="middle" font-family="Arial, Helvetica, sans-serif" font-size="11" fill="#7c8792">2/13/26</text><text x="648.2" y="477" text-anchor="middle" font-family="Arial, Helvetica, sans-serif" font-size="11" fill="#7c8792">2/20/26</text><text x="771.5" y="477" text-anchor="middle" font-family="Arial, Helvetica, sans-serif" font-size="11" fill="#7c8792">2/27/26</text><text x="894.8" y="477" text-anchor="middle" font-family="Arial, Helvetica, sans-serif" font-size="11" fill="#7c8792">3/6/26</text><text x="1018.0" y="477" text-anchor="middle" font-family="Arial, Helvetica, sans-serif" font-size="11" fill="#7c8792">3/13/26</text><text x="1141.2" y="477" text-anchor="middle" font-family="Arial, Helvetica, sans-serif" font-size="11" fill="#7c8792">3/20/26</text><text x="1264.5" y="477" text-anchor="middle" font-family="Arial, Helvetica, sans-serif" font-size="11" fill="#7c8792">3/27/26</text><text x="1387.8" y="477" text-anchor="middle" font-family="Arial, Helvetica, sans-serif" font-size="11" fill="#7c8792">4/3/26</text><text x="1511.0" y="477" text-anchor="middle" font-family="Arial, Helvetica, sans-serif" font-size="11" fill="#7c8792">4/10/26</text>
    
    <line x1="32" y1="447" x2="1511" y2="447" stroke="#d9e0e8" stroke-width="1.2"/>
    </svg>