<svg xmlns="http://www.w3.org/2000/svg" width="1530" height="479" viewBox="0 0 1530 479" role="img" aria-label="Search performance snapshot for london-juice">
    <rect width="100%" height="100%" fill="#e9eef5"/>
    <rect x="6" y="20" width="1518" height="447" rx="22" fill="#ffffff" stroke="#e3e8ef"/>
    
    <rect x="6" y="20" rx="0" ry="0" width="190" height="104" fill="#5b8def" stroke="none"/><rect x="32" y="38" width="14" height="14" rx="2" fill="none" stroke="#ffffff" stroke-width="1.6"/><path d="M35 47 l4 4 l7 -8" fill="none" stroke="#ffffff" stroke-width="1.8" stroke-linecap="round" stroke-linejoin="round"/><text x="54" y="52" font-family="Arial, Helvetica, sans-serif" font-size="14" fill="#ffffff" font-weight="600">Total clicks</text><text x="32" y="95" font-family="Arial, Helvetica, sans-serif" font-size="34" fill="#ffffff" font-weight="500">33.8K</text><rect x="196" y="20" rx="0" ry="0" width="190" height="104" fill="#6b3dc5" stroke="none"/><rect x="222" y="38" width="14" height="14" rx="2" fill="none" stroke="#ffffff" stroke-width="1.6"/><path d="M225 47 l4 4 l7 -8" fill="none" stroke="#ffffff" stroke-width="1.8" stroke-linecap="round" stroke-linejoin="round"/><text x="244" y="52" font-family="Arial, Helvetica, sans-serif" font-size="14" fill="#ffffff" font-weight="600">Total impressions</text><text x="222" y="95" font-family="Arial, Helvetica, sans-serif" font-size="34" fill="#ffffff" font-weight="500">5.36M</text><rect x="386" y="20" rx="0" ry="0" width="190" height="104" fill="#ffffff" stroke="#dfe4ea"/><rect x="412" y="38" width="14" height="14" rx="2" fill="none" stroke="#7f8a96" stroke-width="1.6"/><text x="434" y="52" font-family="Arial, Helvetica, sans-serif" font-size="14" fill="#5c6773" font-weight="600">Average CTR</text><text x="412" y="95" font-family="Arial, Helvetica, sans-serif" font-size="34" fill="#5c6773" font-weight="500">0.6%</text><rect x="576" y="20" rx="0" ry="0" width="190" height="104" fill="#ef7b1d" stroke="none"/><rect x="602" y="38" width="14" height="14" rx="2" fill="none" stroke="#ffffff" stroke-width="1.6"/><path d="M605 47 l4 4 l7 -8" fill="none" stroke="#ffffff" stroke-width="1.8" stroke-linecap="round" stroke-linejoin="round"/><text x="624" y="52" font-family="Arial, Helvetica, sans-serif" font-size="14" fill="#ffffff" font-weight="600">Average position</text><text x="602" y="95" font-family="Arial, Helvetica, sans-serif" font-size="34" fill="#ffffff" font-weight="500">4.3</text>
    <g><rect x="1418" y="28" width="92" height="38" rx="9" fill="#ffffff" stroke="#aab4bf"/><text x="1446" y="52" font-family="Arial, Helvetica, sans-serif" font-size="14" fill="#444">Daily</text><path d="M 1496 45 l6 6 l6 -6" fill="none" stroke="#444" stroke-width="1.6"/></g>
    <text x="32" y="146" font-family="Arial, Helvetica, sans-serif" font-size="12" fill="#5a6470">Clicks</text>
    <text x="1490" y="146" font-family="Arial, Helvetica, sans-serif" font-size="12" fill="#5a6470" text-anchor="end">Impressions</text>
    <line x1="32" y1="160.0" x2="1498" y2="160.0" stroke="#e6ebf1" stroke-width="1"/><line x1="32" y1="228.8" x2="1498" y2="228.8" stroke="#e6ebf1" stroke-width="1"/><line x1="32" y1="297.5" x2="1498" y2="297.5" stroke="#e6ebf1" stroke-width="1"/><line x1="32" y1="366.2" x2="1498" y2="366.2" stroke="#e6ebf1" stroke-width="1"/>
    <polyline points="32.0,369.0 154.2,344.2 276.3,330.5 398.5,314.0 520.7,281.0 642.8,239.8 765.0,259.0 887.2,217.8 1009.3,234.2 1131.5,250.8 1253.7,264.5 1375.8,256.2 1498.0,267.2" fill="none" stroke="#5b8def" stroke-width="3" stroke-linecap="round" stroke-linejoin="round"/><polyline points="32.0,374.5 154.2,352.5 276.3,336.0 398.5,319.5 520.7,294.8 642.8,272.8 765.0,264.5 887.2,253.5 1009.3,245.2 1131.5,231.5 1253.7,217.8 1375.8,226.0 1498.0,212.2" fill="none" stroke="#6b3dc5" stroke-width="3" stroke-linecap="round" stroke-linejoin="round"/><polyline points="32.0,385.5 154.2,396.5 276.3,388.2 398.5,380.0 520.7,382.8 642.8,371.8 765.0,377.2 887.2,366.2 1009.3,355.2 1131.5,338.8 1253.7,347.0 1375.8,360.8 1498.0,371.8" fill="none" stroke="#ef7b1d" stroke-width="3" stroke-linecap="round" stroke-linejoin="round"/>
    <text x="32.0" y="465" text-anchor="middle" font-family="Arial, Helvetica, sans-serif" font-size="11" fill="#7c8792">1/16/26</text><text x="154.2" y="465" text-anchor="middle" font-family="Arial, Helvetica, sans-serif" font-size="11" fill="#7c8792">1/23/26</text><text x="276.3" y="465" text-anchor="middle" font-family="Arial, Helvetica, sans-serif" font-size="11" fill="#7c8792">1/30/26</text><text x="398.5" y="465" text-anchor="middle" font-family="Arial, Helvetica, sans-serif" font-size="11" fill="#7c8792">2/6/26</text><text x="520.7" y="465" text-anchor="middle" font-family="Arial, Helvetica, sans-serif" font-size="11" fill="#7c8792">2/13/26</text><text x="642.8" y="465" text-anchor="middle" font-family="Arial, Helvetica, sans-serif" font-size="11" fill="#7c8792">2/20/26</text><text x="765.0" y="465" text-anchor="middle" font-family="Arial, Helvetica, sans-serif" font-size="11" fill="#7c8792">2/27/26</text><text x="887.2" y="465" text-anchor="middle" font-family="Arial, Helvetica, sans-serif" font-size="11" fill="#7c8792">3/6/26</text><text x="1009.3" y="465" text-anchor="middle" font-family="Arial, Helvetica, sans-serif" font-size="11" fill="#7c8792">3/13/26</text><text x="1131.5" y="465" text-anchor="middle" font-family="Arial, Helvetica, sans-serif" font-size="11" fill="#7c8792">3/20/26</text><text x="1253.7" y="465" text-anchor="middle" font-family="Arial, Helvetica, sans-serif" font-size="11" fill="#7c8792">3/27/26</text><text x="1375.8" y="465" text-anchor="middle" font-family="Arial, Helvetica, sans-serif" font-size="11" fill="#7c8792">4/3/26</text><text x="1498.0" y="465" text-anchor="middle" font-family="Arial, Helvetica, sans-serif" font-size="11" fill="#7c8792">4/10/26</text>
    
    <line x1="32" y1="435" x2="1498" y2="435" stroke="#d9e0e8" stroke-width="1.2"/>
    </svg>