<svg xmlns="http://www.w3.org/2000/svg" width="756" height="392" viewBox="0 0 756 392" role="img" aria-label="Search performance snapshot for shapiro-pr">
    <rect width="100%" height="100%" fill="#e9eef5"/>
    <rect x="6" y="62" width="744" height="318" rx="22" fill="#ffffff" stroke="#e3e8ef"/>
    
        <text x="18" y="26" font-family="Arial, Helvetica, sans-serif" font-size="17" fill="#4e5968" font-weight="600">Performance</text>
        <g font-family="Arial, Helvetica, sans-serif" font-size="12" fill="#5a6470">
          <rect x="10" y="42" width="62" height="24" rx="6" fill="#f4f7fb" stroke="#d8dee6"/>
          <text x="20" y="58">24 hours</text>
          <rect x="77" y="42" width="52" height="24" rx="6" fill="#f4f7fb" stroke="#d8dee6"/>
          <text x="92" y="58">7 days</text>
          <rect x="134" y="42" width="64" height="24" rx="6" fill="#f4f7fb" stroke="#d8dee6"/>
          <text x="147" y="58">28 days</text>
          <rect x="203" y="42" width="66" height="24" rx="6" fill="#f4f7fb" stroke="#d8dee6"/>
          <text x="216" y="58">3 months</text>
          <rect x="274" y="42" width="76" height="24" rx="6" fill="#e6f2ff" stroke="#8ab5ff"/>
          <path d="M289 54 l4 4 l7 -9" fill="none" stroke="#2563eb" stroke-width="1.8" stroke-linecap="round" stroke-linejoin="round"/>
          <text x="304" y="58" fill="#2453b8">6 months</text>
          <rect x="360" y="42" width="95" height="24" rx="6" fill="#ffffff" stroke="#d8dee6"/>
          <text x="375" y="58">Search type: Web</text>
          <rect x="462" y="42" width="74" height="24" rx="6" fill="#ffffff" stroke="#d8dee6"/>
          <text x="477" y="58">Add filter</text>
          <text x="548" y="58" fill="#4176d9">Reset filters</text>
          <text x="642" y="58" fill="#7b8794">Last update: 5.5 hours ago</text>
        </g>
        
    <rect x="6.0" y="62" rx="0" ry="0" width="181.5" height="92" fill="#5b8def" stroke="none"/><rect x="32.0" y="80" width="14" height="14" rx="2" fill="none" stroke="#ffffff" stroke-width="1.6"/><path d="M35.0 89 l4 4 l7 -8" fill="none" stroke="#ffffff" stroke-width="1.8" stroke-linecap="round" stroke-linejoin="round"/><text x="54.0" y="93" font-family="Arial, Helvetica, sans-serif" font-size="14" fill="#ffffff" font-weight="600">Total clicks</text><text x="32.0" y="138" font-family="Arial, Helvetica, sans-serif" font-size="34" fill="#ffffff" font-weight="500">486</text><rect x="187.5" y="62" rx="0" ry="0" width="181.5" height="92" fill="#6b3dc5" stroke="none"/><rect x="213.5" y="80" width="14" height="14" rx="2" fill="none" stroke="#ffffff" stroke-width="1.6"/><path d="M216.5 89 l4 4 l7 -8" fill="none" stroke="#ffffff" stroke-width="1.8" stroke-linecap="round" stroke-linejoin="round"/><text x="235.5" y="93" font-family="Arial, Helvetica, sans-serif" font-size="14" fill="#ffffff" font-weight="600">Total impressions</text><text x="213.5" y="138" font-family="Arial, Helvetica, sans-serif" font-size="34" fill="#ffffff" font-weight="500">162K</text><rect x="369.0" y="62" rx="0" ry="0" width="181.5" height="92" fill="#ffffff" stroke="#dfe4ea"/><rect x="395.0" y="80" width="14" height="14" rx="2" fill="none" stroke="#7f8a96" stroke-width="1.6"/><text x="417.0" y="93" font-family="Arial, Helvetica, sans-serif" font-size="14" fill="#5c6773" font-weight="600">Average CTR</text><text x="395.0" y="138" font-family="Arial, Helvetica, sans-serif" font-size="34" fill="#5c6773" font-weight="500">0.3%</text><rect x="550.5" y="62" rx="0" ry="0" width="181.5" height="92" fill="#ffffff" stroke="#dfe4ea"/><rect x="576.5" y="80" width="14" height="14" rx="2" fill="none" stroke="#7f8a96" stroke-width="1.6"/><text x="598.5" y="93" font-family="Arial, Helvetica, sans-serif" font-size="14" fill="#5c6773" font-weight="600">Average position</text><text x="576.5" y="138" font-family="Arial, Helvetica, sans-serif" font-size="34" fill="#5c6773" font-weight="500">38.7</text>
    
    <text x="32" y="168" font-family="Arial, Helvetica, sans-serif" font-size="12" fill="#5a6470">Clicks</text>
    <text x="716" y="168" font-family="Arial, Helvetica, sans-serif" font-size="12" fill="#5a6470" text-anchor="end">Impressions</text>
    <line x1="32" y1="182.0" x2="724" y2="182.0" stroke="#e6ebf1" stroke-width="1"/><line x1="32" y1="223.5" x2="724" y2="223.5" stroke="#e6ebf1" stroke-width="1"/><line x1="32" y1="265.0" x2="724" y2="265.0" stroke="#e6ebf1" stroke-width="1"/><line x1="32" y1="306.5" x2="724" y2="306.5" stroke="#e6ebf1" stroke-width="1"/>
    <polyline points="32.0,318.1 101.2,308.2 170.4,321.4 239.6,311.5 308.8,316.5 378.0,303.2 447.2,314.8 516.4,319.8 585.6,304.8 654.8,311.5 724.0,314.8" fill="none" stroke="#5b8def" stroke-width="3" stroke-linecap="round" stroke-linejoin="round"/><polyline points="32.0,298.2 101.2,284.9 170.4,299.9 239.6,289.9 308.8,273.3 378.0,279.9 447.2,268.3 516.4,275.0 585.6,270.0 654.8,276.6 724.0,265.0" fill="none" stroke="#6b3dc5" stroke-width="3" stroke-linecap="round" stroke-linejoin="round"/>
    <text x="32.0" y="378" text-anchor="middle" font-family="Arial, Helvetica, sans-serif" font-size="11" fill="#7c8792">9/18/24</text><text x="101.2" y="378" text-anchor="middle" font-family="Arial, Helvetica, sans-serif" font-size="11" fill="#7c8792">10/6/24</text><text x="170.4" y="378" text-anchor="middle" font-family="Arial, Helvetica, sans-serif" font-size="11" fill="#7c8792">10/24/24</text><text x="239.6" y="378" text-anchor="middle" font-family="Arial, Helvetica, sans-serif" font-size="11" fill="#7c8792">11/11/24</text><text x="308.8" y="378" text-anchor="middle" font-family="Arial, Helvetica, sans-serif" font-size="11" fill="#7c8792">11/29/24</text><text x="378.0" y="378" text-anchor="middle" font-family="Arial, Helvetica, sans-serif" font-size="11" fill="#7c8792">12/17/24</text><text x="447.2" y="378" text-anchor="middle" font-family="Arial, Helvetica, sans-serif" font-size="11" fill="#7c8792">1/4/25</text><text x="516.4" y="378" text-anchor="middle" font-family="Arial, Helvetica, sans-serif" font-size="11" fill="#7c8792">1/22/25</text><text x="585.6" y="378" text-anchor="middle" font-family="Arial, Helvetica, sans-serif" font-size="11" fill="#7c8792">2/9/25</text><text x="654.8" y="378" text-anchor="middle" font-family="Arial, Helvetica, sans-serif" font-size="11" fill="#7c8792">2/27/25</text><text x="724.0" y="378" text-anchor="middle" font-family="Arial, Helvetica, sans-serif" font-size="11" fill="#7c8792">3/17/25</text>
    <text x="22" y="186.0" text-anchor="end" font-family="Arial, Helvetica, sans-serif" font-size="11" fill="#7c8792">12</text><text x="22" y="227.5" text-anchor="end" font-family="Arial, Helvetica, sans-serif" font-size="11" fill="#7c8792">8</text><text x="22" y="269.0" text-anchor="end" font-family="Arial, Helvetica, sans-serif" font-size="11" fill="#7c8792">4</text><text x="22" y="310.5" text-anchor="end" font-family="Arial, Helvetica, sans-serif" font-size="11" fill="#7c8792">0</text><text x="734" y="186.0" font-family="Arial, Helvetica, sans-serif" font-size="11" fill="#7c8792">1.5K</text><text x="734" y="227.5" font-family="Arial, Helvetica, sans-serif" font-size="11" fill="#7c8792">1K</text><text x="734" y="269.0" font-family="Arial, Helvetica, sans-serif" font-size="11" fill="#7c8792">500</text><text x="734" y="310.5" font-family="Arial, Helvetica, sans-serif" font-size="11" fill="#7c8792">0</text>
    <line x1="32" y1="348" x2="724" y2="348" stroke="#d9e0e8" stroke-width="1.2"/>
    </svg>