<svg xmlns="http://www.w3.org/2000/svg" width="1534" height="496" viewBox="0 0 1534 496" role="img" aria-label="Search performance snapshot for bobalicious">
    <rect width="100%" height="100%" fill="#e9eef5"/>
    <rect x="6" y="20" width="1522" height="464" rx="22" fill="#ffffff" stroke="#e3e8ef"/>
    
    <rect x="6" y="20" rx="0" ry="0" width="190" height="104" fill="#5b8def" stroke="none"/><rect x="32" y="38" width="14" height="14" rx="2" fill="none" stroke="#ffffff" stroke-width="1.6"/><path d="M35 47 l4 4 l7 -8" fill="none" stroke="#ffffff" stroke-width="1.8" stroke-linecap="round" stroke-linejoin="round"/><text x="54" y="52" font-family="Arial, Helvetica, sans-serif" font-size="14" fill="#ffffff" font-weight="600">Total clicks</text><text x="32" y="95" font-family="Arial, Helvetica, sans-serif" font-size="34" fill="#ffffff" font-weight="500">3.6K</text><rect x="196" y="20" rx="0" ry="0" width="190" height="104" fill="#6b3dc5" stroke="none"/><rect x="222" y="38" width="14" height="14" rx="2" fill="none" stroke="#ffffff" stroke-width="1.6"/><path d="M225 47 l4 4 l7 -8" fill="none" stroke="#ffffff" stroke-width="1.8" stroke-linecap="round" stroke-linejoin="round"/><text x="244" y="52" font-family="Arial, Helvetica, sans-serif" font-size="14" fill="#ffffff" font-weight="600">Total impressions</text><text x="222" y="95" font-family="Arial, Helvetica, sans-serif" font-size="34" fill="#ffffff" font-weight="500">1.12M</text><rect x="386" y="20" rx="0" ry="0" width="190" height="104" fill="#ffffff" stroke="#dfe4ea"/><rect x="412" y="38" width="14" height="14" rx="2" fill="none" stroke="#7f8a96" stroke-width="1.6"/><text x="434" y="52" font-family="Arial, Helvetica, sans-serif" font-size="14" fill="#5c6773" font-weight="600">Average CTR</text><text x="412" y="95" font-family="Arial, Helvetica, sans-serif" font-size="34" fill="#5c6773" font-weight="500">0.3%</text><rect x="576" y="20" rx="0" ry="0" width="190" height="104" fill="#ffffff" stroke="#dfe4ea"/><rect x="602" y="38" width="14" height="14" rx="2" fill="none" stroke="#7f8a96" stroke-width="1.6"/><text x="624" y="52" font-family="Arial, Helvetica, sans-serif" font-size="14" fill="#5c6773" font-weight="600">Average position</text><text x="602" y="95" font-family="Arial, Helvetica, sans-serif" font-size="34" fill="#5c6773" font-weight="500">4.3</text>
    <g><rect x="1422" y="28" width="92" height="38" rx="9" fill="#ffffff" stroke="#aab4bf"/><text x="1450" y="52" font-family="Arial, Helvetica, sans-serif" font-size="14" fill="#444">Daily</text><path d="M 1500 45 l6 6 l6 -6" fill="none" stroke="#444" stroke-width="1.6"/></g>
    <text x="32" y="146" font-family="Arial, Helvetica, sans-serif" font-size="12" fill="#5a6470">Clicks</text>
    <text x="1494" y="146" font-family="Arial, Helvetica, sans-serif" font-size="12" fill="#5a6470" text-anchor="end">Impressions</text>
    <line x1="32" y1="160.0" x2="1502" y2="160.0" stroke="#e6ebf1" stroke-width="1"/><line x1="32" y1="233.0" x2="1502" y2="233.0" stroke="#e6ebf1" stroke-width="1"/><line x1="32" y1="306.0" x2="1502" y2="306.0" stroke="#e6ebf1" stroke-width="1"/><line x1="32" y1="379.0" x2="1502" y2="379.0" stroke="#e6ebf1" stroke-width="1"/>
    <polyline points="32.0,355.6 154.5,370.2 277.0,364.4 399.5,352.7 522.0,361.5 644.5,338.1 767.0,349.8 889.5,332.3 1012.0,341.0 1134.5,314.8 1257.0,326.4 1379.5,306.0 1502.0,288.5" fill="none" stroke="#5b8def" stroke-width="3" stroke-linecap="round" stroke-linejoin="round"/><polyline points="32.0,332.3 154.5,346.9 277.0,335.2 399.5,323.5 522.0,317.7 644.5,326.4 767.0,311.8 889.5,320.6 1012.0,300.2 1134.5,282.6 1257.0,273.9 1379.5,259.3 1502.0,250.5" fill="none" stroke="#6b3dc5" stroke-width="3" stroke-linecap="round" stroke-linejoin="round"/>
    <text x="32.0" y="482" text-anchor="middle" font-family="Arial, Helvetica, sans-serif" font-size="11" fill="#7c8792">1/16/26</text><text x="154.5" y="482" text-anchor="middle" font-family="Arial, Helvetica, sans-serif" font-size="11" fill="#7c8792">1/23/26</text><text x="277.0" y="482" text-anchor="middle" font-family="Arial, Helvetica, sans-serif" font-size="11" fill="#7c8792">1/30/26</text><text x="399.5" y="482" text-anchor="middle" font-family="Arial, Helvetica, sans-serif" font-size="11" fill="#7c8792">2/6/26</text><text x="522.0" y="482" text-anchor="middle" font-family="Arial, Helvetica, sans-serif" font-size="11" fill="#7c8792">2/13/26</text><text x="644.5" y="482" text-anchor="middle" font-family="Arial, Helvetica, sans-serif" font-size="11" fill="#7c8792">2/20/26</text><text x="767.0" y="482" text-anchor="middle" font-family="Arial, Helvetica, sans-serif" font-size="11" fill="#7c8792">2/27/26</text><text x="889.5" y="482" text-anchor="middle" font-family="Arial, Helvetica, sans-serif" font-size="11" fill="#7c8792">3/6/26</text><text x="1012.0" y="482" text-anchor="middle" font-family="Arial, Helvetica, sans-serif" font-size="11" fill="#7c8792">3/13/26</text><text x="1134.5" y="482" text-anchor="middle" font-family="Arial, Helvetica, sans-serif" font-size="11" fill="#7c8792">3/20/26</text><text x="1257.0" y="482" text-anchor="middle" font-family="Arial, Helvetica, sans-serif" font-size="11" fill="#7c8792">3/27/26</text><text x="1379.5" y="482" text-anchor="middle" font-family="Arial, Helvetica, sans-serif" font-size="11" fill="#7c8792">4/3/26</text><text x="1502.0" y="482" text-anchor="middle" font-family="Arial, Helvetica, sans-serif" font-size="11" fill="#7c8792">4/10/26</text>
    
    <line x1="32" y1="452" x2="1502" y2="452" stroke="#d9e0e8" stroke-width="1.2"/>
    </svg>