<svg xmlns="http://www.w3.org/2000/svg" width="1531" height="481" viewBox="0 0 1531 481" role="img" aria-label="Search performance snapshot for mr-basil">
    <rect width="100%" height="100%" fill="#e9eef5"/>
    <rect x="6" y="20" width="1519" height="449" rx="22" fill="#ffffff" stroke="#e3e8ef"/>
    
    <rect x="6" y="20" rx="0" ry="0" width="190" height="104" fill="#5b8def" stroke="none"/><rect x="32" y="38" width="14" height="14" rx="2" fill="none" stroke="#ffffff" stroke-width="1.6"/><path d="M35 47 l4 4 l7 -8" fill="none" stroke="#ffffff" stroke-width="1.8" stroke-linecap="round" stroke-linejoin="round"/><text x="54" y="52" font-family="Arial, Helvetica, sans-serif" font-size="14" fill="#ffffff" font-weight="600">Total clicks</text><text x="32" y="95" font-family="Arial, Helvetica, sans-serif" font-size="34" fill="#ffffff" font-weight="500">967</text><rect x="196" y="20" rx="0" ry="0" width="190" height="104" fill="#6b3dc5" stroke="none"/><rect x="222" y="38" width="14" height="14" rx="2" fill="none" stroke="#ffffff" stroke-width="1.6"/><path d="M225 47 l4 4 l7 -8" fill="none" stroke="#ffffff" stroke-width="1.8" stroke-linecap="round" stroke-linejoin="round"/><text x="244" y="52" font-family="Arial, Helvetica, sans-serif" font-size="14" fill="#ffffff" font-weight="600">Total impressions</text><text x="222" y="95" font-family="Arial, Helvetica, sans-serif" font-size="34" fill="#ffffff" font-weight="500">127K</text><rect x="386" y="20" rx="0" ry="0" width="190" height="104" fill="#ffffff" stroke="#dfe4ea"/><rect x="412" y="38" width="14" height="14" rx="2" fill="none" stroke="#7f8a96" stroke-width="1.6"/><text x="434" y="52" font-family="Arial, Helvetica, sans-serif" font-size="14" fill="#5c6773" font-weight="600">Average CTR</text><text x="412" y="95" font-family="Arial, Helvetica, sans-serif" font-size="34" fill="#5c6773" font-weight="500">0.8%</text><rect x="576" y="20" rx="0" ry="0" width="190" height="104" fill="#ef7b1d" stroke="none"/><rect x="602" y="38" width="14" height="14" rx="2" fill="none" stroke="#ffffff" stroke-width="1.6"/><path d="M605 47 l4 4 l7 -8" fill="none" stroke="#ffffff" stroke-width="1.8" stroke-linecap="round" stroke-linejoin="round"/><text x="624" y="52" font-family="Arial, Helvetica, sans-serif" font-size="14" fill="#ffffff" font-weight="600">Average position</text><text x="602" y="95" font-family="Arial, Helvetica, sans-serif" font-size="34" fill="#ffffff" font-weight="500">5.2</text>
    <g><rect x="1419" y="28" width="92" height="38" rx="9" fill="#ffffff" stroke="#aab4bf"/><text x="1447" y="52" font-family="Arial, Helvetica, sans-serif" font-size="14" fill="#444">Daily</text><path d="M 1497 45 l6 6 l6 -6" fill="none" stroke="#444" stroke-width="1.6"/></g>
    <text x="32" y="146" font-family="Arial, Helvetica, sans-serif" font-size="12" fill="#5a6470">Clicks</text>
    <text x="1491" y="146" font-family="Arial, Helvetica, sans-serif" font-size="12" fill="#5a6470" text-anchor="end">Impressions</text>
    <line x1="32" y1="160.0" x2="1499" y2="160.0" stroke="#e6ebf1" stroke-width="1"/><line x1="32" y1="229.2" x2="1499" y2="229.2" stroke="#e6ebf1" stroke-width="1"/><line x1="32" y1="298.5" x2="1499" y2="298.5" stroke="#e6ebf1" stroke-width="1"/><line x1="32" y1="367.8" x2="1499" y2="367.8" stroke="#e6ebf1" stroke-width="1"/>
    <polyline points="32.0,414.8 154.2,403.8 276.5,412.1 398.8,406.5 521.0,409.3 643.2,412.1 765.5,403.8 887.8,398.2 1010.0,401.0 1132.2,395.4 1254.5,384.4 1376.8,340.1 1499.0,268.0" fill="none" stroke="#5b8def" stroke-width="3" stroke-linecap="round" stroke-linejoin="round"/><polyline points="32.0,420.4 154.2,417.6 276.5,420.4 398.8,423.1 521.0,423.1 643.2,425.9 765.5,423.1 887.8,423.1 1010.0,425.9 1132.2,423.1 1254.5,420.4 1376.8,356.7 1499.0,254.2" fill="none" stroke="#6b3dc5" stroke-width="3" stroke-linecap="round" stroke-linejoin="round"/><polyline points="32.0,334.5 154.2,301.3 276.5,315.1 398.8,306.8 521.0,323.4 643.2,309.6 765.5,317.9 887.8,295.7 1010.0,281.9 1132.2,290.2 1254.5,304.0 1376.8,293.0 1499.0,298.5" fill="none" stroke="#ef7b1d" stroke-width="3" stroke-linecap="round" stroke-linejoin="round"/>
    <text x="32.0" y="467" text-anchor="middle" font-family="Arial, Helvetica, sans-serif" font-size="11" fill="#7c8792">1/16/26</text><text x="154.2" y="467" text-anchor="middle" font-family="Arial, Helvetica, sans-serif" font-size="11" fill="#7c8792">1/23/26</text><text x="276.5" y="467" text-anchor="middle" font-family="Arial, Helvetica, sans-serif" font-size="11" fill="#7c8792">1/30/26</text><text x="398.8" y="467" text-anchor="middle" font-family="Arial, Helvetica, sans-serif" font-size="11" fill="#7c8792">2/6/26</text><text x="521.0" y="467" text-anchor="middle" font-family="Arial, Helvetica, sans-serif" font-size="11" fill="#7c8792">2/13/26</text><text x="643.2" y="467" text-anchor="middle" font-family="Arial, Helvetica, sans-serif" font-size="11" fill="#7c8792">2/20/26</text><text x="765.5" y="467" text-anchor="middle" font-family="Arial, Helvetica, sans-serif" font-size="11" fill="#7c8792">2/27/26</text><text x="887.8" y="467" text-anchor="middle" font-family="Arial, Helvetica, sans-serif" font-size="11" fill="#7c8792">3/6/26</text><text x="1010.0" y="467" text-anchor="middle" font-family="Arial, Helvetica, sans-serif" font-size="11" fill="#7c8792">3/13/26</text><text x="1132.2" y="467" text-anchor="middle" font-family="Arial, Helvetica, sans-serif" font-size="11" fill="#7c8792">3/20/26</text><text x="1254.5" y="467" text-anchor="middle" font-family="Arial, Helvetica, sans-serif" font-size="11" fill="#7c8792">3/27/26</text><text x="1376.8" y="467" text-anchor="middle" font-family="Arial, Helvetica, sans-serif" font-size="11" fill="#7c8792">4/3/26</text><text x="1499.0" y="467" text-anchor="middle" font-family="Arial, Helvetica, sans-serif" font-size="11" fill="#7c8792">4/10/26</text>
    
    <line x1="32" y1="437" x2="1499" y2="437" stroke="#d9e0e8" stroke-width="1.2"/>
    </svg>