<svg xmlns="http://www.w3.org/2000/svg" width="1472" height="555" viewBox="0 0 1472 555" role="img" aria-label="Search performance snapshot for handcrafted-thrones">
    <rect width="100%" height="100%" fill="#e9eef5"/>
    <rect x="6" y="20" width="1460" height="523" rx="22" fill="#ffffff" stroke="#e3e8ef"/>
    
    <rect x="6" y="20" rx="0" ry="0" width="190" height="104" fill="#5b8def" stroke="none"/><rect x="32" y="38" width="14" height="14" rx="2" fill="none" stroke="#ffffff" stroke-width="1.6"/><path d="M35 47 l4 4 l7 -8" fill="none" stroke="#ffffff" stroke-width="1.8" stroke-linecap="round" stroke-linejoin="round"/><text x="54" y="52" font-family="Arial, Helvetica, sans-serif" font-size="14" fill="#ffffff" font-weight="600">Total clicks</text><text x="32" y="95" font-family="Arial, Helvetica, sans-serif" font-size="34" fill="#ffffff" font-weight="500">2.3K</text><rect x="196" y="20" rx="0" ry="0" width="190" height="104" fill="#6b3dc5" stroke="none"/><rect x="222" y="38" width="14" height="14" rx="2" fill="none" stroke="#ffffff" stroke-width="1.6"/><path d="M225 47 l4 4 l7 -8" fill="none" stroke="#ffffff" stroke-width="1.8" stroke-linecap="round" stroke-linejoin="round"/><text x="244" y="52" font-family="Arial, Helvetica, sans-serif" font-size="14" fill="#ffffff" font-weight="600">Total impressions</text><text x="222" y="95" font-family="Arial, Helvetica, sans-serif" font-size="34" fill="#ffffff" font-weight="500">1.21M</text><rect x="386" y="20" rx="0" ry="0" width="190" height="104" fill="#ffffff" stroke="#dfe4ea"/><rect x="412" y="38" width="14" height="14" rx="2" fill="none" stroke="#7f8a96" stroke-width="1.6"/><text x="434" y="52" font-family="Arial, Helvetica, sans-serif" font-size="14" fill="#5c6773" font-weight="600">Average CTR</text><text x="412" y="95" font-family="Arial, Helvetica, sans-serif" font-size="34" fill="#5c6773" font-weight="500">0.2%</text><rect x="576" y="20" rx="0" ry="0" width="190" height="104" fill="#ffffff" stroke="#dfe4ea"/><rect x="602" y="38" width="14" height="14" rx="2" fill="none" stroke="#7f8a96" stroke-width="1.6"/><text x="624" y="52" font-family="Arial, Helvetica, sans-serif" font-size="14" fill="#5c6773" font-weight="600">Average position</text><text x="602" y="95" font-family="Arial, Helvetica, sans-serif" font-size="34" fill="#5c6773" font-weight="500">6.3</text>
    <g><rect x="1360" y="28" width="92" height="38" rx="9" fill="#ffffff" stroke="#aab4bf"/><text x="1388" y="52" font-family="Arial, Helvetica, sans-serif" font-size="14" fill="#444">Daily</text><path d="M 1438 45 l6 6 l6 -6" fill="none" stroke="#444" stroke-width="1.6"/></g>
    <text x="32" y="146" font-family="Arial, Helvetica, sans-serif" font-size="12" fill="#5a6470">Clicks</text>
    <text x="1432" y="146" font-family="Arial, Helvetica, sans-serif" font-size="12" fill="#5a6470" text-anchor="end">Impressions</text>
    <line x1="32" y1="160.0" x2="1440" y2="160.0" stroke="#e6ebf1" stroke-width="1"/><line x1="32" y1="247.8" x2="1440" y2="247.8" stroke="#e6ebf1" stroke-width="1"/><line x1="32" y1="335.5" x2="1440" y2="335.5" stroke="#e6ebf1" stroke-width="1"/><line x1="32" y1="423.2" x2="1440" y2="423.2" stroke="#e6ebf1" stroke-width="1"/>
    <polyline points="32.0,258.3 172.8,370.6 313.6,300.4 454.4,328.5 595.2,282.9 736.0,342.5 876.8,265.3 1017.6,356.6 1158.4,307.4 1299.2,325.0 1440.0,275.8" fill="none" stroke="#5b8def" stroke-width="3" stroke-linecap="round" stroke-linejoin="round"/><polyline points="32.0,405.7 172.8,419.7 313.6,409.2 454.4,395.2 595.2,412.7 736.0,402.2 876.8,405.7 1017.6,398.7 1158.4,388.1 1299.2,391.7 1440.0,395.2" fill="none" stroke="#6b3dc5" stroke-width="3" stroke-linecap="round" stroke-linejoin="round"/>
    <text x="32.0" y="541" text-anchor="middle" font-family="Arial, Helvetica, sans-serif" font-size="11" fill="#7c8792">9/18/24</text><text x="172.8" y="541" text-anchor="middle" font-family="Arial, Helvetica, sans-serif" font-size="11" fill="#7c8792">10/6/24</text><text x="313.6" y="541" text-anchor="middle" font-family="Arial, Helvetica, sans-serif" font-size="11" fill="#7c8792">10/24/24</text><text x="454.4" y="541" text-anchor="middle" font-family="Arial, Helvetica, sans-serif" font-size="11" fill="#7c8792">11/11/24</text><text x="595.2" y="541" text-anchor="middle" font-family="Arial, Helvetica, sans-serif" font-size="11" fill="#7c8792">11/29/24</text><text x="736.0" y="541" text-anchor="middle" font-family="Arial, Helvetica, sans-serif" font-size="11" fill="#7c8792">12/17/24</text><text x="876.8" y="541" text-anchor="middle" font-family="Arial, Helvetica, sans-serif" font-size="11" fill="#7c8792">1/4/25</text><text x="1017.6" y="541" text-anchor="middle" font-family="Arial, Helvetica, sans-serif" font-size="11" fill="#7c8792">1/22/25</text><text x="1158.4" y="541" text-anchor="middle" font-family="Arial, Helvetica, sans-serif" font-size="11" fill="#7c8792">2/9/25</text><text x="1299.2" y="541" text-anchor="middle" font-family="Arial, Helvetica, sans-serif" font-size="11" fill="#7c8792">2/27/25</text><text x="1440.0" y="541" text-anchor="middle" font-family="Arial, Helvetica, sans-serif" font-size="11" fill="#7c8792">3/17/25</text>
    <text x="22" y="164.0" text-anchor="end" font-family="Arial, Helvetica, sans-serif" font-size="11" fill="#7c8792">30</text><text x="22" y="251.8" text-anchor="end" font-family="Arial, Helvetica, sans-serif" font-size="11" fill="#7c8792">20</text><text x="22" y="339.5" text-anchor="end" font-family="Arial, Helvetica, sans-serif" font-size="11" fill="#7c8792">10</text><text x="22" y="427.2" text-anchor="end" font-family="Arial, Helvetica, sans-serif" font-size="11" fill="#7c8792">0</text><text x="1450" y="164.0" font-family="Arial, Helvetica, sans-serif" font-size="11" fill="#7c8792">30K</text><text x="1450" y="251.8" font-family="Arial, Helvetica, sans-serif" font-size="11" fill="#7c8792">20K</text><text x="1450" y="339.5" font-family="Arial, Helvetica, sans-serif" font-size="11" fill="#7c8792">10K</text><text x="1450" y="427.2" font-family="Arial, Helvetica, sans-serif" font-size="11" fill="#7c8792">0</text>
    <line x1="32" y1="511" x2="1440" y2="511" stroke="#d9e0e8" stroke-width="1.2"/>
    </svg>